<svg xmlns="http://www.w3.org/2000/svg" width="430" height="1401" viewBox="0 0 430 1401" font-family="Pretendard, 'Noto Sans KR', 'Apple SD Gothic Neo', 'Malgun Gothic', sans-serif">
<rect x="0" y="0" width="430" height="1401" fill="#fffefa"/>
<g transform="translate(193 24) scale(1.83 1.83)"><path fill="#252923" d="M11 9h2v11h-2zM4 4h6v2H4zm-1 2h2v4H3zm2 4h6v2H5zm9-7h7v2h-7zm-2 2h2v6h-2zm2 6h5v2h-5zM7 20h10v2H7z"/><path fill="#a8cf52" d="M5 6h4v2H5zm2 2h4v2H7zm9-3h4v2h-4zm-2 2h4v3h-4z"/><path fill="#5f973d" d="M5 8h2v2H5zm4 0h2v2H9zm5 2h4v1h-4z"/><path fill="#8a6039" d="M9 19h6v2H9z"/></g>
<text x="95.5" y="100.32" font-family="Pretendard, 'Noto Sans KR', 'Apple SD Gothic Neo', 'Malgun Gothic', sans-serif" font-size="26" font-weight="700" fill="#1d1e1c" text-anchor="start" letter-spacing="-1">실시간 생육 모니터링</text>
<text x="215" y="128.84" font-family="Pretendard, 'Noto Sans KR', 'Apple SD Gothic Neo', 'Malgun Gothic', sans-serif" font-size="12" font-weight="400" fill="#474a46" text-anchor="middle">센서 시계열과 이상탐지(스파이크·드리프트·범위이탈)를 확인하세</text>
<text x="215" y="146.84" font-family="Pretendard, 'Noto Sans KR', 'Apple SD Gothic Neo', 'Malgun Gothic', sans-serif" font-size="12" font-weight="400" fill="#474a46" text-anchor="middle">요.</text>
<clipPath id="clip1"><rect x="23" y="168" width="384" height="38"/></clipPath>
<g clip-path="url(#clip1)">
<rect x="23" y="168" width="160" height="38" rx="9" fill="#1e603d" stroke="#1e603d" stroke-width="1"/>
<text x="37" y="191.16" font-family="Pretendard, 'Noto Sans KR', 'Apple SD Gothic Neo', 'Malgun Gothic', sans-serif" font-size="13" font-weight="700" fill="#ffffff" text-anchor="start">온천장 스마트팜 1호…</text>
<rect x="191" y="168" width="160" height="38" rx="9" fill="#ffffff" stroke="#d6cec2" stroke-width="1"/>
<text x="205" y="191.16" font-family="Pretendard, 'Noto Sans KR', 'Apple SD Gothic Neo', 'Malgun Gothic', sans-serif" font-size="13" font-weight="600" fill="#1d1e1c" text-anchor="start">장전동 스마트팜 2호…</text>
<rect x="359" y="168" width="160" height="38" rx="9" fill="#ffffff" stroke="#d6cec2" stroke-width="1"/>
<text x="373" y="191.16" font-family="Pretendard, 'Noto Sans KR', 'Apple SD Gothic Neo', 'Malgun Gothic', sans-serif" font-size="13" font-weight="600" fill="#1d1e1c" text-anchor="start">명륜동 스마트팜 3호…</text>
</g>
<rect x="23" y="218" width="123.33" height="38" rx="9" fill="#ffffff" stroke="#d6cec2" stroke-width="1"/>
<text x="64.17" y="241.16" font-family="Pretendard, 'Noto Sans KR', 'Apple SD Gothic Neo', 'Malgun Gothic', sans-serif" font-size="13" font-weight="600" fill="#1d1e1c" text-anchor="start">24시간</text>
<rect x="153.33" y="218" width="123.33" height="38" rx="9" fill="#eef4ea" stroke="#1e603d" stroke-width="1"/>
<text x="204.5" y="241.16" font-family="Pretendard, 'Noto Sans KR', 'Apple SD Gothic Neo', 'Malgun Gothic', sans-serif" font-size="13" font-weight="700" fill="#1e603d" text-anchor="start">7일</text>
<rect x="283.67" y="218" width="123.33" height="38" rx="9" fill="#ffffff" stroke="#d6cec2" stroke-width="1"/>
<text x="331.33" y="241.16" font-family="Pretendard, 'Noto Sans KR', 'Apple SD Gothic Neo', 'Malgun Gothic', sans-serif" font-size="13" font-weight="600" fill="#1d1e1c" text-anchor="start">30일</text>
<rect x="23" y="272" width="90.75" height="70" rx="10" fill="#fffefa" stroke="#d9d1c5" stroke-width="1"/>
<text x="53.38" y="295.2" font-family="Pretendard, 'Noto Sans KR', 'Apple SD Gothic Neo', 'Malgun Gothic', sans-serif" font-size="10" font-weight="600" fill="#555555" text-anchor="start">가동률</text>
<text x="53.88" y="322.26" font-family="Pretendard, 'Noto Sans KR', 'Apple SD Gothic Neo', 'Malgun Gothic', sans-serif" font-size="18" font-weight="700" fill="#1e603d" text-anchor="start" letter-spacing="-0.5">97%</text>
<rect x="120.75" y="272" width="90.75" height="70" rx="10" fill="#fffefa" stroke="#d9d1c5" stroke-width="1"/>
<text x="134.63" y="295.2" font-family="Pretendard, 'Noto Sans KR', 'Apple SD Gothic Neo', 'Malgun Gothic', sans-serif" font-size="10" font-weight="600" fill="#555555" text-anchor="start">이상 스파이크</text>
<text x="152.13" y="322.26" font-family="Pretendard, 'Noto Sans KR', 'Apple SD Gothic Neo', 'Malgun Gothic', sans-serif" font-size="18" font-weight="700" fill="#1e603d" text-anchor="start" letter-spacing="-0.5">3건</text>
<rect x="218.5" y="272" width="90.75" height="70" rx="10" fill="#fffefa" stroke="#d9d1c5" stroke-width="1"/>
<text x="243.88" y="295.2" font-family="Pretendard, 'Noto Sans KR', 'Apple SD Gothic Neo', 'Malgun Gothic', sans-serif" font-size="10" font-weight="600" fill="#555555" text-anchor="start">드리프트</text>
<text x="249.88" y="322.26" font-family="Pretendard, 'Noto Sans KR', 'Apple SD Gothic Neo', 'Malgun Gothic', sans-serif" font-size="18" font-weight="700" fill="#1e603d" text-anchor="start" letter-spacing="-0.5">1종</text>
<rect x="316.25" y="272" width="90.75" height="70" rx="10" fill="#fffefa" stroke="#d9d1c5" stroke-width="1"/>
<text x="340.13" y="295.2" font-family="Pretendard, 'Noto Sans KR', 'Apple SD Gothic Neo', 'Malgun Gothic', sans-serif" font-size="10" font-weight="600" fill="#555555" text-anchor="start">현재 상태</text>
<text x="344.13" y="322.26" font-family="Pretendard, 'Noto Sans KR', 'Apple SD Gothic Neo', 'Malgun Gothic', sans-serif" font-size="18" font-weight="700" fill="#1e603d" text-anchor="start" letter-spacing="-0.5">정상</text>
<g transform="translate(23 363.5) scale(0.88 0.88)"><path fill="#252923" d="M11 9h2v11h-2zM4 4h6v2H4zm-1 2h2v4H3zm2 4h6v2H5zm9-7h7v2h-7zm-2 2h2v6h-2zm2 6h5v2h-5zM7 20h10v2H7z"/><path fill="#a8cf52" d="M5 6h4v2H5zm2 2h4v2H7zm9-3h4v2h-4zm-2 2h4v3h-4z"/><path fill="#5f973d" d="M5 8h2v2H5zm4 0h2v2H9zm5 2h4v1h-4z"/><path fill="#8a6039" d="M9 19h6v2H9z"/></g>
<text x="52" y="379.76" font-family="Pretendard, 'Noto Sans KR', 'Apple SD Gothic Neo', 'Malgun Gothic', sans-serif" font-size="18" font-weight="600" fill="#1d1e1c" text-anchor="start" letter-spacing="-0.45">센서 시계열</text>
<rect x="23" y="398" width="384" height="171" rx="11" fill="#ffffff" stroke="#d9d1c5" stroke-width="1"/>
<rect x="37" y="418.5" width="9" height="9" rx="5" fill="#e05a3a"/>
<text x="53" y="427.48" font-family="Pretendard, 'Noto Sans KR', 'Apple SD Gothic Neo', 'Malgun Gothic', sans-serif" font-size="14" font-weight="700" fill="#1d1e1c" text-anchor="start">온도</text>
<text x="339" y="428.44" font-family="Pretendard, 'Noto Sans KR', 'Apple SD Gothic Neo', 'Malgun Gothic', sans-serif" font-size="17" font-weight="700" fill="#1d1e1c" text-anchor="start">22.4</text>
<text x="380" y="430.02" font-family="Pretendard, 'Noto Sans KR', 'Apple SD Gothic Neo', 'Malgun Gothic', sans-serif" font-size="11" font-weight="500" fill="#888888" text-anchor="start">°C</text>
<g transform="translate(37 442) scale(1 1)"><rect x="4" y="19.4" width="348" height="41.8" fill="#e05a3a" opacity="0.08"/><line x1="4" y1="19.4" x2="352" y2="19.4" stroke="#e05a3a" stroke-width="1" stroke-dasharray="3,3" opacity="0.3"/><line x1="4" y1="61.2" x2="352" y2="61.2" stroke="#e05a3a" stroke-width="1" stroke-dasharray="3,3" opacity="0.3"/><path d="M4.0 52.1 L28.9 42.2 L53.7 47.5 L78.6 36.9 L103.4 30.8 L128.3 39.9 L153.1 33.8 L178.0 45.2 L202.9 38.4 L227.7 27.8 L252.6 32.3 L277.4 40.7 L302.3 36.1 L327.1 46.8 L352.0 39.2" stroke="#e05a3a" stroke-width="2" fill="none"/></g>
<text x="37" y="551.02" font-family="Pretendard, 'Noto Sans KR', 'Apple SD Gothic Neo', 'Malgun Gothic', sans-serif" font-size="11" font-weight="400" fill="#888888" text-anchor="start">정상범위 18–26 °C</text>
<rect x="23" y="581" width="384" height="171" rx="11" fill="#ffffff" stroke="#d9d1c5" stroke-width="1"/>
<rect x="37" y="601.5" width="9" height="9" rx="5" fill="#2f8fd6"/>
<text x="53" y="610.48" font-family="Pretendard, 'Noto Sans KR', 'Apple SD Gothic Neo', 'Malgun Gothic', sans-serif" font-size="14" font-weight="700" fill="#1d1e1c" text-anchor="start">습도</text>
<text x="346" y="611.44" font-family="Pretendard, 'Noto Sans KR', 'Apple SD Gothic Neo', 'Malgun Gothic', sans-serif" font-size="17" font-weight="700" fill="#1d1e1c" text-anchor="start">64.0</text>
<text x="387" y="613.02" font-family="Pretendard, 'Noto Sans KR', 'Apple SD Gothic Neo', 'Malgun Gothic', sans-serif" font-size="11" font-weight="500" fill="#888888" text-anchor="start">%</text>
<g transform="translate(37 625) scale(1 1)"><rect x="4" y="19.4" width="348" height="41.8" fill="#2f8fd6" opacity="0.08"/><line x1="4" y1="19.4" x2="352" y2="19.4" stroke="#2f8fd6" stroke-width="1" stroke-dasharray="3,3" opacity="0.3"/><line x1="4" y1="61.2" x2="352" y2="61.2" stroke="#2f8fd6" stroke-width="1" stroke-dasharray="3,3" opacity="0.3"/><path d="M4.0 36.9 L28.9 30.8 L53.7 39.9 L78.6 33.8 L103.4 45.2 L128.3 38.4 L153.1 27.8 L178.0 32.3 L202.9 40.7 L227.7 36.1 L252.6 46.8 L277.4 39.2 L302.3 52.1 L327.1 42.2 L352.0 47.5" stroke="#2f8fd6" stroke-width="2" fill="none"/></g>
<text x="37" y="734.02" font-family="Pretendard, 'Noto Sans KR', 'Apple SD Gothic Neo', 'Malgun Gothic', sans-serif" font-size="11" font-weight="400" fill="#888888" text-anchor="start">정상범위 55–75 %</text>
<rect x="23" y="764" width="384" height="171" rx="11" fill="#ffffff" stroke="#d9d1c5" stroke-width="1"/>
<rect x="37" y="784.5" width="9" height="9" rx="5" fill="#7a6cd6"/>
<text x="53" y="793.48" font-family="Pretendard, 'Noto Sans KR', 'Apple SD Gothic Neo', 'Malgun Gothic', sans-serif" font-size="14" font-weight="700" fill="#1d1e1c" text-anchor="start">CO₂</text>
<text x="325" y="794.44" font-family="Pretendard, 'Noto Sans KR', 'Apple SD Gothic Neo', 'Malgun Gothic', sans-serif" font-size="17" font-weight="700" fill="#1d1e1c" text-anchor="start">1,050</text>
<text x="375" y="796.02" font-family="Pretendard, 'Noto Sans KR', 'Apple SD Gothic Neo', 'Malgun Gothic', sans-serif" font-size="11" font-weight="500" fill="#888888" text-anchor="start">ppm</text>
<g transform="translate(37 808) scale(1 1)"><rect x="4" y="19.4" width="348" height="41.8" fill="#7a6cd6" opacity="0.08"/><line x1="4" y1="19.4" x2="352" y2="19.4" stroke="#7a6cd6" stroke-width="1" stroke-dasharray="3,3" opacity="0.3"/><line x1="4" y1="61.2" x2="352" y2="61.2" stroke="#7a6cd6" stroke-width="1" stroke-dasharray="3,3" opacity="0.3"/><path d="M4.0 33.8 L28.9 45.2 L53.7 38.4 L78.6 27.8 L103.4 32.3 L128.3 40.7 L153.1 36.1 L178.0 46.8 L202.9 39.2 L227.7 52.1 L252.6 42.2 L277.4 47.5 L302.3 36.9 L327.1 30.8 L352.0 39.9" stroke="#7a6cd6" stroke-width="2" fill="none"/></g>
<text x="37" y="917.02" font-family="Pretendard, 'Noto Sans KR', 'Apple SD Gothic Neo', 'Malgun Gothic', sans-serif" font-size="11" font-weight="400" fill="#888888" text-anchor="start">정상범위 800–1400 ppm</text>
<rect x="23" y="947" width="384" height="171" rx="11" fill="#ffffff" stroke="#d9d1c5" stroke-width="1"/>
<rect x="37" y="967.5" width="9" height="9" rx="5" fill="#d6a12f"/>
<text x="53" y="976.48" font-family="Pretendard, 'Noto Sans KR', 'Apple SD Gothic Neo', 'Malgun Gothic', sans-serif" font-size="14" font-weight="700" fill="#1d1e1c" text-anchor="start">광량</text>
<text x="315" y="977.44" font-family="Pretendard, 'Noto Sans KR', 'Apple SD Gothic Neo', 'Malgun Gothic', sans-serif" font-size="17" font-weight="700" fill="#1d1e1c" text-anchor="start">13,800</text>
<text x="375" y="979.02" font-family="Pretendard, 'Noto Sans KR', 'Apple SD Gothic Neo', 'Malgun Gothic', sans-serif" font-size="11" font-weight="500" fill="#888888" text-anchor="start">lux</text>
<g transform="translate(37 991) scale(1 1)"><rect x="4" y="19.4" width="348" height="41.8" fill="#d6a12f" opacity="0.08"/><line x1="4" y1="19.4" x2="352" y2="19.4" stroke="#d6a12f" stroke-width="1" stroke-dasharray="3,3" opacity="0.3"/><line x1="4" y1="61.2" x2="352" y2="61.2" stroke="#d6a12f" stroke-width="1" stroke-dasharray="3,3" opacity="0.3"/><path d="M4.0 27.8 L28.9 32.3 L53.7 40.7 L78.6 36.1 L103.4 46.8 L128.3 39.2 L153.1 52.1 L178.0 42.2 L202.9 47.5 L227.7 36.9 L252.6 30.8 L277.4 39.9 L302.3 33.8 L327.1 45.2 L352.0 38.4" stroke="#d6a12f" stroke-width="2" fill="none"/></g>
<text x="37" y="1100.02" font-family="Pretendard, 'Noto Sans KR', 'Apple SD Gothic Neo', 'Malgun Gothic', sans-serif" font-size="11" font-weight="400" fill="#888888" text-anchor="start">정상범위 0–20000 lux</text>
<rect x="23" y="1130" width="384" height="171" rx="11" fill="#ffffff" stroke="#d9d1c5" stroke-width="1"/>
<rect x="37" y="1150.5" width="9" height="9" rx="5" fill="#0b7d46"/>
<text x="53" y="1159.48" font-family="Pretendard, 'Noto Sans KR', 'Apple SD Gothic Neo', 'Malgun Gothic', sans-serif" font-size="14" font-weight="700" fill="#1d1e1c" text-anchor="start">양액 pH</text>
<text x="349" y="1160.44" font-family="Pretendard, 'Noto Sans KR', 'Apple SD Gothic Neo', 'Malgun Gothic', sans-serif" font-size="17" font-weight="700" fill="#1d1e1c" text-anchor="start">6.1</text>
<text x="380" y="1162.02" font-family="Pretendard, 'Noto Sans KR', 'Apple SD Gothic Neo', 'Malgun Gothic', sans-serif" font-size="11" font-weight="500" fill="#888888" text-anchor="start">pH</text>
<g transform="translate(37 1174) scale(1 1)"><rect x="4" y="19.4" width="348" height="41.8" fill="#0b7d46" opacity="0.08"/><line x1="4" y1="19.4" x2="352" y2="19.4" stroke="#0b7d46" stroke-width="1" stroke-dasharray="3,3" opacity="0.3"/><line x1="4" y1="61.2" x2="352" y2="61.2" stroke="#0b7d46" stroke-width="1" stroke-dasharray="3,3" opacity="0.3"/><path d="M4.0 36.1 L28.9 46.8 L53.7 39.2 L78.6 52.1 L103.4 42.2 L128.3 47.5 L153.1 36.9 L178.0 30.8 L202.9 39.9 L227.7 33.8 L252.6 45.2 L277.4 38.4 L302.3 27.8 L327.1 32.3 L352.0 40.7" stroke="#0b7d46" stroke-width="2" fill="none"/></g>
<text x="37" y="1283.02" font-family="Pretendard, 'Noto Sans KR', 'Apple SD Gothic Neo', 'Malgun Gothic', sans-serif" font-size="11" font-weight="400" fill="#888888" text-anchor="start">정상범위 5.5–6.5 pH</text>
<rect x="0" y="1325" width="430" height="1" fill="#e3dfd8"/>
<rect x="0" y="1326" width="430" height="75" fill="#fffefa"/>
<g transform="translate(38.5 1342) scale(1.04 1.04)"><g fill="none" stroke="#676a67" stroke-width="1.75" stroke-linecap="round" stroke-linejoin="round"><path d="M3 9h18l-2-5H5L3 9Z"/><path d="M5 9v10h14V9M8 19v-6h4v6M15 12h2"/><path d="M4 9c0 1.2 1 2 2.1 2S8 10.2 8 9c0 1.2 1 2 2 2s2-1 2-2c0 1.2 1 2 2 2s2-1 2-2c0 1.2.9 2 2 2s2-1 2-2"/></g></g>
<text x="41" y="1381.7" font-family="Pretendard, 'Noto Sans KR', 'Apple SD Gothic Neo', 'Malgun Gothic', sans-serif" font-size="10" font-weight="500" fill="#676a67" text-anchor="start">매장</text>
<g transform="translate(120.5 1342) scale(1.04 1.04)"><g fill="none" stroke="#676a67" stroke-width="1.75" stroke-linecap="round" stroke-linejoin="round"><path d="M12 21v-9"/><path d="M12 12C7 12 5 9.8 5 5c4.8 0 7 2 7 7ZM12 11c0-4.4 2.2-6.4 7-6.4 0 4.5-2.3 6.4-7 6.4Z"/><path d="M8 21h8"/></g></g>
<text x="123" y="1381.7" font-family="Pretendard, 'Noto Sans KR', 'Apple SD Gothic Neo', 'Malgun Gothic', sans-serif" font-size="10" font-weight="500" fill="#676a67" text-anchor="start">운영</text>
<rect x="174" y="1334" width="82" height="59" rx="10" fill="#eef4ea"/>
<g transform="translate(202.5 1342) scale(1.04 1.04)"><g fill="none" stroke="#1e603d" stroke-width="1.75" stroke-linecap="round" stroke-linejoin="round"><rect x="3" y="4" width="18" height="13" rx="1.5"/><path d="M8 21h8M12 17v4"/></g></g>
<text x="195" y="1381.7" font-family="Pretendard, 'Noto Sans KR', 'Apple SD Gothic Neo', 'Malgun Gothic', sans-serif" font-size="10" font-weight="700" fill="#1e603d" text-anchor="start">모니터링</text>
<g transform="translate(284.5 1342) scale(1.04 1.04)"><g fill="none" stroke="#676a67" stroke-width="1.75" stroke-linecap="round" stroke-linejoin="round"><path d="m9.5 14.5-2 2a3.5 3.5 0 0 1-5-5l3-3a3.5 3.5 0 0 1 5 0"/><path d="m14.5 9.5 2-2a3.5 3.5 0 1 1 5 5l-3 3a3.5 3.5 0 0 1-5 0M8.5 15.5l7-7"/></g></g>
<text x="287" y="1381.7" font-family="Pretendard, 'Noto Sans KR', 'Apple SD Gothic Neo', 'Malgun Gothic', sans-serif" font-size="10" font-weight="500" fill="#676a67" text-anchor="start">연동</text>
<g transform="translate(366.5 1342) scale(1.04 1.04)"><g fill="#676a67"><rect x="3.5" y="14" width="4.2" height="7" rx=".8"/><rect x="9.9" y="9" width="4.2" height="12" rx=".8"/><rect x="16.3" y="3" width="4.2" height="18" rx=".8"/></g></g>
<text x="364" y="1381.7" font-family="Pretendard, 'Noto Sans KR', 'Apple SD Gothic Neo', 'Malgun Gothic', sans-serif" font-size="10" font-weight="500" fill="#676a67" text-anchor="start">리포트</text>
</svg>
